<svg width="21" height="20" viewBox="0 0 21 20" fill="none" xmlns="http://www.w3.org/2000/svg">
<path d="M19.4697 7.00036C19.6675 7.00036 19.8608 6.94171 20.0253 6.83183C20.1897 6.72194 20.3179 6.56577 20.3936 6.38304C20.4693 6.20031 20.4891 5.99925 20.4505 5.80527C20.4119 5.61128 20.3167 5.4331 20.1768 5.29325C20.037 5.1534 19.8588 5.05816 19.6648 5.01957C19.4708 4.98099 19.2698 5.00079 19.087 5.07648C18.9043 5.15216 18.7481 5.28034 18.6383 5.44479C18.5284 5.60924 18.4697 5.80257 18.4697 6.00036C18.4697 6.26557 18.5751 6.51993 18.7626 6.70746C18.9501 6.895 19.2045 7.00036 19.4697 7.00036ZM16.4697 7.00036C16.6675 7.00036 16.8608 6.94171 17.0253 6.83183C17.1897 6.72194 17.3179 6.56577 17.3936 6.38304C17.4693 6.20031 17.4891 5.99925 17.4505 5.80527C17.4119 5.61128 17.3167 5.4331 17.1768 5.29325C17.037 5.1534 16.8588 5.05816 16.6648 5.01957C16.4708 4.98099 16.2698 5.00079 16.087 5.07648C15.9043 5.15216 15.7481 5.28034 15.6383 5.44479C15.5284 5.60924 15.4697 5.80257 15.4697 6.00036C15.4697 6.26557 15.5751 6.51993 15.7626 6.70746C15.9501 6.895 16.2045 7.00036 16.4697 7.00036ZM13.4697 7.00036C13.6675 7.00036 13.8608 6.94171 14.0253 6.83183C14.1897 6.72194 14.3179 6.56577 14.3936 6.38304C14.4693 6.20031 14.4891 5.99925 14.4505 5.80527C14.4119 5.61128 14.3167 5.4331 14.1768 5.29325C14.037 5.1534 13.8588 5.05816 13.6648 5.01957C13.4708 4.98099 13.2698 5.00079 13.087 5.07648C12.9043 5.15216 12.7481 5.28034 12.6383 5.44479C12.5284 5.60924 12.4697 5.80257 12.4697 6.00036C12.4697 6.13168 12.4956 6.26171 12.5458 6.38304C12.5961 6.50437 12.6698 6.6146 12.7626 6.70746C12.8555 6.80032 12.9657 6.87398 13.087 6.92424C13.2084 6.97449 13.3384 7.00036 13.4697 7.00036V7.00036ZM17.9097 11.0004C17.6897 11.0004 17.4597 10.9304 17.2397 10.8804C16.7942 10.7822 16.3564 10.6518 15.9297 10.4904C15.4658 10.3216 14.9559 10.3304 14.498 10.515C14.0402 10.6996 13.6668 11.047 13.4497 11.4904L13.2297 11.9404C12.2542 11.3962 11.3562 10.7235 10.5597 9.94036C9.7804 9.14428 9.10807 8.25009 8.55972 7.28036L8.99972 7.00036C9.44309 6.78327 9.7905 6.40989 9.97511 5.95205C10.1597 5.49421 10.1685 4.98427 9.99972 4.52036C9.84094 4.09278 9.71066 3.65515 9.60972 3.21036C9.55972 2.98036 9.51972 2.76036 9.48972 2.53036C9.36828 1.82598 8.99934 1.1881 8.44934 0.731596C7.89934 0.275093 7.20442 0.0299652 6.48972 0.0403564H3.48972C3.06697 0.0398026 2.64887 0.128604 2.26284 0.30094C1.87681 0.473276 1.53155 0.725254 1.24972 1.04036C0.963409 1.36285 0.749992 1.74329 0.624016 2.15573C0.498041 2.56817 0.462467 3.00292 0.519719 3.43036C1.04643 7.6174 2.9521 11.5099 5.93612 14.494C8.92014 17.478 12.8127 19.3836 16.9997 19.9104C17.1295 19.9203 17.2599 19.9203 17.3897 19.9104C18.1854 19.9104 18.9484 19.5943 19.511 19.0317C20.0736 18.4691 20.3897 17.706 20.3897 16.9104V13.9104C20.3793 13.2126 20.126 12.5402 19.6734 12.0091C19.2207 11.478 18.597 11.1212 17.9097 11.0004V11.0004ZM18.3997 17.0004C18.4014 17.1453 18.3715 17.2889 18.3121 17.4211C18.2528 17.5534 18.1654 17.6712 18.056 17.7663C17.9466 17.8614 17.8178 17.9316 17.6786 17.972C17.5394 18.0124 17.393 18.0221 17.2497 18.0004C13.5159 17.5131 10.0468 15.8085 7.37972 13.1504C4.71472 10.4652 3.01296 6.97379 2.53972 3.22036C2.518 3.07369 2.52916 2.92403 2.57239 2.78221C2.61563 2.64039 2.68987 2.50996 2.78972 2.40036C2.88231 2.29494 2.99605 2.21019 3.12354 2.15162C3.25103 2.09304 3.38942 2.06194 3.52972 2.06036H6.52972C6.76227 2.05518 6.98934 2.13124 7.17186 2.27543C7.35438 2.41962 7.48093 2.62293 7.52972 2.85036C7.56972 3.12369 7.61972 3.39369 7.67972 3.66036C7.79524 4.1875 7.94898 4.70554 8.13972 5.21036L6.73972 5.86036C6.62002 5.91528 6.51234 5.9933 6.42288 6.08995C6.33341 6.1866 6.26392 6.29997 6.21839 6.42355C6.17286 6.54713 6.15219 6.67849 6.15757 6.81008C6.16294 6.94167 6.19426 7.0709 6.24972 7.19036C7.68892 10.2731 10.167 12.7512 13.2497 14.1904C13.4932 14.2904 13.7663 14.2904 14.0097 14.1904C14.2579 14.098 14.4593 13.911 14.5697 13.6704L15.1997 12.2704C15.7167 12.4552 16.2443 12.6088 16.7797 12.7304C17.0397 12.7904 17.3197 12.8404 17.5897 12.8804C17.8153 12.9312 18.0163 13.0586 18.1585 13.2409C18.3007 13.4232 18.3754 13.6492 18.3697 13.8804L18.3997 17.0004Z" fill="white"/>
</svg>
