<svg width="40" height="54" viewBox="0 0 40 54" fill="none" xmlns="http://www.w3.org/2000/svg">
<g clip-path="url(#clip0_2046_20963)">
<path d="M19.875 0.96875C16.2865 0.96875 13.181 2.27995 10.5586 4.90234C7.9362 7.52474 6.625 10.6302 6.625 14.2188V20.8438C4.76172 20.8438 3.19173 21.4821 1.91504 22.7588C0.638346 24.0355 0 25.6055 0 27.4688V47.3438C0 49.207 0.638346 50.777 1.91504 52.0537C3.19173 53.3304 4.76172 53.9688 6.625 53.9688H33.125C34.9883 53.9688 36.5583 53.3304 37.835 52.0537C39.1117 50.777 39.75 49.207 39.75 47.3438V27.4688C39.75 25.6055 39.1117 24.0355 37.835 22.7588C36.5583 21.4821 34.9883 20.8438 33.125 20.8438V14.2188C33.125 10.6302 31.8138 7.52474 29.1914 4.90234C26.569 2.27995 23.4635 0.96875 19.875 0.96875ZM35.2988 27.4688V47.3438C35.2988 48.793 34.5742 49.5176 33.125 49.5176H6.625C5.17578 49.5176 4.45117 48.793 4.45117 47.3438V27.4688C4.45117 26.0195 5.17578 25.2949 6.625 25.2949H33.125C34.5742 25.2949 35.2988 26.0195 35.2988 27.4688ZM11.0762 20.8438V14.2188C11.0762 11.8034 11.9388 9.73307 13.6641 8.00781C15.3893 6.28255 17.4596 5.41992 19.875 5.41992C22.2904 5.41992 24.3607 6.28255 26.0859 8.00781C27.8112 9.73307 28.6738 11.8034 28.6738 14.2188V20.8438H11.0762ZM19.875 27.4688C18.0117 27.4688 16.4417 28.1071 15.165 29.3838C13.8883 30.6605 13.25 32.2305 13.25 34.0938C13.25 35.474 13.6641 36.7334 14.4922 37.8721C15.3203 39.0107 16.39 39.8216 17.7012 40.3047V42.8926C17.7012 44.4108 18.4258 45.1699 19.875 45.1699C21.3242 45.1699 22.0488 44.4108 22.0488 42.8926V40.3047C25.0163 39.2695 26.5 37.1992 26.5 34.0938C26.5 32.2305 25.8617 30.6605 24.585 29.3838C23.3083 28.1071 21.7383 27.4688 19.875 27.4688ZM19.875 36.2676C18.4258 36.2676 17.7012 35.543 17.7012 34.0938C17.7012 32.6445 18.4258 31.9199 19.875 31.9199C21.3242 31.9199 22.0488 32.6445 22.0488 34.0938C22.0488 35.543 21.3242 36.2676 19.875 36.2676Z" fill="white"/>
</g>
<defs>
<clipPath id="clip0_2046_20963">
<rect width="39.75" height="53" fill="white" transform="translate(0 0.96875)"/>
</clipPath>
</defs>
</svg>
