<svg width="20" height="16" viewBox="0 0 20 16" fill="none" xmlns="http://www.w3.org/2000/svg">
<path d="M17.0002 0H3.00024C2.20459 0 1.44153 0.316071 0.878924 0.87868C0.316315 1.44129 0.000244141 2.20435 0.000244141 3V13C0.000244141 13.7956 0.316315 14.5587 0.878924 15.1213C1.44153 15.6839 2.20459 16 3.00024 16H17.0002C17.7959 16 18.559 15.6839 19.1216 15.1213C19.6842 14.5587 20.0002 13.7956 20.0002 13V3C20.0002 2.20435 19.6842 1.44129 19.1216 0.87868C18.559 0.316071 17.7959 0 17.0002 0V0ZM3.00024 2H17.0002C17.2655 2 17.5198 2.10536 17.7074 2.29289C17.8949 2.48043 18.0002 2.73478 18.0002 3L10.0002 7.88L2.00024 3C2.00024 2.73478 2.1056 2.48043 2.29314 2.29289C2.48067 2.10536 2.73503 2 3.00024 2V2ZM18.0002 13C18.0002 13.2652 17.8949 13.5196 17.7074 13.7071C17.5198 13.8946 17.2655 14 17.0002 14H3.00024C2.73503 14 2.48067 13.8946 2.29314 13.7071C2.1056 13.5196 2.00024 13.2652 2.00024 13V5.28L9.48024 9.85C9.63226 9.93777 9.80471 9.98397 9.98024 9.98397C10.1558 9.98397 10.3282 9.93777 10.4802 9.85L18.0002 5.28V13Z" fill="white"/>
</svg>
