<svg width="81" height="82" viewBox="0 0 81 82" fill="none" xmlns="http://www.w3.org/2000/svg">
<path d="M74.7502 33.5601H54.5002C54.1521 33.5601 53.8674 33.8448 53.8674 34.1929V37.9897C53.8674 38.3378 54.1521 38.6226 54.5002 38.6226H74.7502C75.0982 38.6226 75.383 38.3378 75.383 37.9897V34.1929C75.383 33.8448 75.0982 33.5601 74.7502 33.5601ZM64.1506 44.3179H54.5002C54.1521 44.3179 53.8674 44.6026 53.8674 44.9507V48.7476C53.8674 49.0956 54.1521 49.3804 54.5002 49.3804H64.1506C64.4986 49.3804 64.7834 49.0956 64.7834 48.7476V44.9507C64.7834 44.6026 64.4986 44.3179 64.1506 44.3179ZM37.7544 26.4805H34.3293C33.8389 26.4805 33.4434 26.876 33.4434 27.3664V46.9836C33.4434 47.2684 33.5778 47.5294 33.8072 47.6955L45.5854 56.2859C45.981 56.5707 46.5347 56.4916 46.8194 56.0961L48.8523 53.3196V53.3117C49.1371 52.9162 49.0501 52.3625 48.6546 52.0777L38.6324 44.832V27.3664C38.6403 26.876 38.2369 26.4805 37.7544 26.4805V26.4805Z" fill="white"/>
<path d="M63.661 54.2766H59.0889C58.646 54.2766 58.2267 54.506 57.9894 54.8857C56.9848 56.4757 55.8141 57.9469 54.4694 59.2917C52.1517 61.6093 49.4543 63.4287 46.4564 64.6943C43.3477 66.0074 40.0492 66.6718 36.6478 66.6718C33.2385 66.6718 29.94 66.0074 26.8392 64.6943C23.8413 63.4287 21.1439 61.6093 18.8262 59.2917C16.5086 56.974 14.6892 54.2766 13.4236 51.2787C12.1105 48.1779 11.4461 44.8794 11.4461 41.4701C11.4461 38.0608 12.1105 34.7702 13.4236 31.6615C14.6892 28.6635 16.5086 25.9662 18.8262 23.6485C21.1439 21.3308 23.8413 19.5115 26.8392 18.2459C29.94 16.9328 33.2464 16.2683 36.6478 16.2683C40.0571 16.2683 43.3556 16.9328 46.4564 18.2459C49.4543 19.5115 52.1517 21.3308 54.4694 23.6485C55.8141 24.9932 56.9848 26.4645 57.9894 28.0545C58.2267 28.4342 58.646 28.6635 59.0889 28.6635H63.661C64.2068 28.6635 64.5548 28.094 64.3096 27.6115C59.1522 17.352 48.695 10.6838 37.0196 10.5493C19.9257 10.3357 5.72701 24.3288 5.69537 41.4068C5.66373 58.5165 19.5302 72.3988 36.6399 72.3988C48.4656 72.3988 59.0968 65.7068 64.3096 55.3287C64.5548 54.8462 64.1989 54.2766 63.661 54.2766V54.2766Z" fill="white"/>
</svg>
