<svg width="74" height="75" viewBox="0 0 74 75" fill="none" xmlns="http://www.w3.org/2000/svg">
<path d="M6.9375 32.1888H12.7188V46.0638H9.25C8.33003 46.0638 7.44774 46.4292 6.79722 47.0798C6.14671 47.7303 5.78125 48.6126 5.78125 49.5325C5.78125 50.4525 6.14671 51.3348 6.79722 51.9853C7.44774 52.6358 8.33003 53.0013 9.25 53.0013H64.75C65.67 53.0013 66.5523 52.6358 67.2028 51.9853C67.8533 51.3348 68.2188 50.4525 68.2188 49.5325C68.2188 48.6126 67.8533 47.7303 67.2028 47.0798C66.5523 46.4292 65.67 46.0638 64.75 46.0638H61.2812V32.1888H67.0625C67.8163 32.1874 68.5491 31.9406 69.1501 31.4856C69.7511 31.0306 70.1875 30.3922 70.3933 29.667C70.5991 28.9419 70.5631 28.1694 70.2907 27.4665C70.0183 26.7637 69.5243 26.1687 68.8836 25.7716L38.8211 7.2716C38.2748 6.93072 37.6439 6.75 37 6.75C36.3561 6.75 35.7252 6.93072 35.1789 7.2716L5.11641 25.7716C4.47568 26.1687 3.98173 26.7637 3.70933 27.4665C3.43693 28.1694 3.4009 28.9419 3.60669 29.667C3.81248 30.3922 4.24889 31.0306 4.84988 31.4856C5.45086 31.9406 6.1837 32.1874 6.9375 32.1888ZM19.6562 32.1888H26.5938V46.0638H19.6562V32.1888ZM40.4688 32.1888V46.0638H33.5312V32.1888H40.4688ZM54.3438 46.0638H47.4062V32.1888H54.3438V46.0638ZM37 14.2958L54.8063 25.2513H19.1938L37 14.2958ZM72.8438 61.095C72.8438 62.015 72.4783 62.8973 71.8278 63.5478C71.1773 64.1983 70.295 64.5638 69.375 64.5638H4.625C3.70503 64.5638 2.82274 64.1983 2.17222 63.5478C1.52171 62.8973 1.15625 62.015 1.15625 61.095C1.15625 60.1751 1.52171 59.2928 2.17222 58.6423C2.82274 57.9917 3.70503 57.6263 4.625 57.6263H69.375C70.295 57.6263 71.1773 57.9917 71.8278 58.6423C72.4783 59.2928 72.8438 60.1751 72.8438 61.095Z" fill="white"/>
</svg>
