<svg width="74" height="75" viewBox="0 0 74 75" fill="none" xmlns="http://www.w3.org/2000/svg">
<path d="M6.16797 22.5534C6.16797 20.9179 6.81767 19.3494 7.97414 18.1929C9.13062 17.0364 10.6991 16.3867 12.3346 16.3867H61.668C63.3035 16.3867 64.872 17.0364 66.0285 18.1929C67.1849 19.3494 67.8346 20.9179 67.8346 22.5534V53.3867C67.8346 55.0222 67.1849 56.5907 66.0285 57.7472C64.872 58.9037 63.3035 59.5534 61.668 59.5534H12.3346C10.6991 59.5534 9.13062 58.9037 7.97414 57.7472C6.81767 56.5907 6.16797 55.0222 6.16797 53.3867V22.5534Z" stroke="white" stroke-width="6" stroke-linecap="round" stroke-linejoin="round"/>
<path d="M37 47.2188C42.1086 47.2188 46.25 43.0774 46.25 37.9688C46.25 32.8601 42.1086 28.7188 37 28.7188C31.8914 28.7188 27.75 32.8601 27.75 37.9688C27.75 43.0774 31.8914 47.2188 37 47.2188Z" stroke="white" stroke-width="6" stroke-linecap="round" stroke-linejoin="round"/>
<path d="M6.16797 28.7201C9.43897 28.7201 12.576 27.4207 14.889 25.1077C17.2019 22.7948 18.5013 19.6577 18.5013 16.3867M55.5013 59.5534C55.5013 56.2824 56.8007 53.1454 59.1137 50.8324C61.4266 48.5195 64.5636 47.2201 67.8346 47.2201" stroke="white" stroke-width="6" stroke-linecap="round" stroke-linejoin="round"/>
</svg>
