<svg width="20" height="19" viewBox="0 0 20 19" fill="none" xmlns="http://www.w3.org/2000/svg">
<path d="M9.99992 18.1667C4.93731 18.1667 0.833252 14.0627 0.833252 9.00004C0.833252 3.93743 4.93731 -0.166626 9.99992 -0.166626C15.0625 -0.166626 19.1666 3.93743 19.1666 9.00004C19.161 14.0603 15.0602 18.1611 9.99992 18.1667ZM2.66659 9.15771C2.70996 13.1922 6.00427 16.4338 10.0389 16.4122C14.0736 16.3904 17.3328 13.1136 17.3328 9.07887C17.3328 5.04417 14.0736 1.76733 10.0389 1.74554C6.00427 1.72396 2.70996 4.96557 2.66659 9.00004V9.15771ZM11.8333 13.5834H9.08325V9.91671H8.16659V8.08337H10.9166V11.75H11.8333V13.5834ZM10.9166 6.25004H9.08325V4.41671H10.9166V6.25004Z" fill="#283655"/>
</svg>
